<svg width="42" height="48" viewBox="0 0 42 48" fill="none" xmlns="http://www.w3.org/2000/svg">
<path d="M5.5 3.25H27.5C28.2293 3.25 28.9288 3.53973 29.4445 4.05546C29.9603 4.57118 30.25 5.27066 30.25 6V19.8105C31.1933 19.8958 32.1145 20.069 33 20.3193V6C33 4.54131 32.4205 3.14236 31.3891 2.11091C30.3576 1.07946 28.9587 0.5 27.5 0.5H5.5C4.04131 0.5 2.64236 1.07946 1.61091 2.11091C0.579462 3.14236 0 4.54131 0 6V39C0 40.4587 0.579462 41.8576 1.61091 42.8891C2.64236 43.9205 4.04131 44.5 5.5 44.5H17.2067C16.5063 43.6517 15.9005 42.7296 15.4 41.75H5.5C4.77065 41.75 4.07118 41.4603 3.55546 40.9445C3.03973 40.4288 2.75 39.7293 2.75 39H14.3192C14.0648 38.1011 13.8945 37.1805 13.8105 36.25H2.75V6C2.75 5.27066 3.03973 4.57118 3.55546 4.05546C4.07118 3.53973 4.77065 3.25 5.5 3.25Z" fill="#6FFFE9"/>
<path d="M8.25 6C7.52065 6 6.82118 6.28973 6.30546 6.80546C5.78973 7.32118 5.5 8.02065 5.5 8.75V11.5C5.5 12.2293 5.78973 12.9288 6.30546 13.4445C6.82118 13.9603 7.52065 14.25 8.25 14.25H24.75C25.4793 14.25 26.1788 13.9603 26.6945 13.4445C27.2103 12.9288 27.5 12.2293 27.5 11.5V8.75C27.5 8.02065 27.2103 7.32118 26.6945 6.80546C26.1788 6.28973 25.4793 6 24.75 6H8.25ZM24.75 8.75V11.5H8.25V8.75H24.75Z" fill="#6FFFE9"/>
<path d="M41.25 34.875C41.25 38.1571 39.9462 41.3047 37.6254 43.6254C35.3047 45.9462 32.1571 47.25 28.875 47.25C25.5929 47.25 22.4453 45.9462 20.1246 43.6254C17.8038 41.3047 16.5 38.1571 16.5 34.875C16.5 31.5929 17.8038 28.4453 20.1246 26.1246C22.4453 23.8038 25.5929 22.5 28.875 22.5C32.1571 22.5 35.3047 23.8038 37.6254 26.1246C39.9462 28.4453 41.25 31.5929 41.25 34.875ZM27.555 29.4685C27.3767 29.346 27.1695 29.2722 26.9539 29.2544C26.7383 29.2365 26.5218 29.2753 26.3257 29.3667C26.1657 29.4372 26.021 29.538 25.8995 29.6637C25.6433 29.9263 25.5002 30.2787 25.5007 30.6455V39.1017C25.4991 39.284 25.5334 39.4648 25.6019 39.6338C25.6703 39.8028 25.7714 39.9565 25.8995 40.0862C26.025 40.2111 26.1711 40.3134 26.3312 40.3887C26.6103 40.5166 26.9268 40.5362 27.2195 40.4437C27.3463 40.402 27.4666 40.3427 27.577 40.2677L33.891 35.9585C34.0831 35.8319 34.2379 35.6563 34.3392 35.4497C34.4437 35.2417 34.4974 35.0119 34.496 34.7791C34.4946 34.5464 34.438 34.3172 34.331 34.1105C34.2235 33.907 34.0653 33.7346 33.8717 33.61L27.555 29.4685Z" fill="#6FFFE9"/>
</svg>
