<svg width="55" height="55" viewBox="0 0 55 55" fill="none" xmlns="http://www.w3.org/2000/svg">
<path d="M48.125 36.3687C48.2132 36.1913 48.2587 35.9958 48.2581 35.7977C48.2575 35.5996 48.2108 35.4044 48.1216 35.2275L46.475 32.8281C46.4441 32.7834 46.4269 32.7319 46.4269 32.6734C46.4269 32.615 46.4441 32.5634 46.475 32.5187L48.125 30.1125C48.2132 29.9351 48.2587 29.7395 48.2581 29.5415C48.2575 29.3434 48.2108 29.1481 48.1216 28.9712C48.0532 28.7849 47.9453 28.6157 47.8052 28.475C47.6652 28.3344 47.4964 28.2258 47.3104 28.1565L44.4813 27.1219C44.429 27.104 44.3824 27.0727 44.3462 27.0311C44.31 26.9894 44.2854 26.9389 44.275 26.8847V23.9937C44.2641 23.7892 44.206 23.59 44.1052 23.4117C44.0044 23.2333 43.8637 23.0808 43.6941 22.9659C43.4602 22.8061 43.1833 22.7209 42.9 22.7219H42.3157L39.3938 23.4781C39.3155 23.5097 39.228 23.5097 39.1497 23.4781L37.2625 21.2437C37.1247 21.0939 36.9574 20.9744 36.771 20.8926C36.5846 20.8108 36.3833 20.7685 36.1797 20.7685C35.9762 20.7685 35.7749 20.8108 35.5885 20.8926C35.4021 20.9744 35.2347 21.0939 35.0969 21.2437L33.2063 23.4781C33.128 23.5097 33.0405 23.5097 32.9622 23.4781H32.9657L29.8719 22.6875H29.5007C29.2142 22.6866 28.934 22.7716 28.6963 22.9315C28.5282 23.0468 28.3887 23.1991 28.2886 23.3767C28.1884 23.5542 28.1304 23.7524 28.1188 23.9559V26.8469C28.1089 26.9012 28.085 26.952 28.0494 26.9942C28.0139 27.0364 27.9679 27.0686 27.916 27.0875L25.0938 28.1187C24.771 28.1715 24.4773 28.3367 24.2646 28.5852C24.052 28.8338 23.9341 29.1495 23.9319 29.4765C23.9319 29.6828 23.98 29.8787 24.066 30.0506L25.7125 32.45C25.7435 32.4947 25.7607 32.5462 25.7607 32.6047C25.7607 32.6631 25.7435 32.7147 25.7125 32.7594L24.0625 35.1656C23.9744 35.343 23.9289 35.5385 23.9295 35.7366C23.9301 35.9347 23.9768 36.13 24.066 36.3069C24.1344 36.4932 24.2423 36.6624 24.3824 36.8031C24.5224 36.9437 24.6912 37.0523 24.8772 37.1215L27.7063 38.1562C27.7585 38.1741 27.8051 38.2054 27.8414 38.247C27.8776 38.2887 27.9022 38.3392 27.9125 38.3934V41.2844C27.9235 41.4889 27.9816 41.6881 28.0824 41.8664C28.1832 42.0448 28.3239 42.1973 28.4935 42.3122C28.7312 42.4721 29.0114 42.5571 29.2979 42.5562H29.8754L30.941 42.3156V55L36.2004 48.125L41.2535 55V42.3156L42.3191 42.5906H42.7247C43.0112 42.5915 43.2914 42.5065 43.5291 42.3465C43.6973 42.2313 43.8367 42.079 43.9368 41.9014C44.037 41.7239 44.095 41.5257 44.1066 41.3222V38.4312C44.1165 38.3769 44.1404 38.3261 44.176 38.2839C44.2115 38.2417 44.2576 38.2095 44.3094 38.1906L47.1316 37.1594C47.347 37.1168 47.5493 37.024 47.7219 36.8884C47.8946 36.7528 48.0327 36.5782 48.125 36.379V36.3687Z" fill="#6FFFE9"/>
<path d="M0 3.4375V44.6875H27.5L27.1219 44.5156C26.6323 44.1803 26.226 43.7374 25.934 43.2208C25.642 42.7043 25.4722 42.1277 25.4375 41.5353V41.25H3.4375V6.875H51.5625V41.25H46.6469V41.525C46.6135 42.1166 46.4457 42.6928 46.1562 43.2098C45.8667 43.7269 45.4632 44.1711 44.9762 44.5088L44.6875 44.6875H55V3.4375H0Z" fill="#6FFFE9"/>
<path d="M25.5406 23.7531C25.5519 23.1377 25.7092 22.5338 25.9997 21.9911C26.2901 21.4484 26.7054 20.9826 27.2113 20.6319C27.3068 20.6068 27.4068 20.6044 27.5034 20.625H10.3125V24.0625H25.5406V23.7531Z" fill="#6FFFE9"/>
<path d="M22.0688 27.5H10.3125V30.9375H21.8625C21.6258 30.4993 21.4886 30.0142 21.4607 29.5169C21.4328 29.0196 21.5148 28.5223 21.7009 28.0603C21.7557 27.8369 21.8856 27.6391 22.0688 27.5Z" fill="#6FFFE9"/>
<path d="M10.3125 13.75H44.6875V17.1875H10.3125V13.75Z" fill="#6FFFE9"/>
</svg>
