<svg width="55" height="55" viewBox="0 0 55 55" fill="none" xmlns="http://www.w3.org/2000/svg">
<path fill-rule="evenodd" clip-rule="evenodd" d="M8.02093 18.3334C8.02139 16.1607 8.58347 14.025 9.65264 12.1336C10.7218 10.2422 12.2618 8.65923 14.123 7.53841C15.9843 6.41759 18.1037 5.79694 20.2756 5.73669C22.4474 5.67644 24.598 6.17864 26.5186 7.19455C28.4391 8.21046 30.0644 9.70558 31.2368 11.5348C32.4092 13.3641 33.0888 15.4653 33.2097 17.6346C33.3306 19.804 32.8887 21.9677 31.9269 23.9159C30.965 25.8641 29.5159 27.5306 27.7201 28.7536C31.5873 30.172 34.9415 32.7152 37.3511 36.056C39.7608 39.3968 41.1155 43.3822 41.2409 47.4994C41.2477 47.7251 41.2099 47.95 41.1298 48.1611C41.0497 48.3722 40.9288 48.5655 40.774 48.7299C40.4613 49.0619 40.0296 49.2561 39.5737 49.2697C39.1179 49.2834 38.6753 49.1154 38.3433 48.8028C38.0113 48.4901 37.8171 48.0584 37.8034 47.6025C37.667 43.1371 35.7972 38.9003 32.5903 35.7899C29.3834 32.6796 25.0914 30.9401 20.624 30.9401C16.1565 30.9401 11.8645 32.6796 8.65762 35.7899C5.45074 38.9003 3.58094 43.1371 3.44447 47.6025C3.42153 48.0513 3.22373 48.4733 2.89346 48.778C2.56319 49.0827 2.12672 49.246 1.67754 49.2328C1.22836 49.2196 0.80221 49.031 0.490381 48.7075C0.178552 48.3839 0.00584778 47.9511 0.0092661 47.5017C0.13428 43.3841 1.48878 39.3982 3.89842 36.0569C6.30806 32.7157 9.66255 30.1721 13.5301 28.7536C11.8313 27.598 10.4411 26.0443 9.48081 24.228C8.52052 22.4117 8.01932 20.3879 8.02093 18.3334ZM20.6251 9.16672C18.1939 9.16672 15.8624 10.1325 14.1433 11.8516C12.4242 13.5707 11.4584 15.9022 11.4584 18.3334C11.4584 20.7645 12.4242 23.0961 14.1433 24.8152C15.8624 26.5343 18.1939 27.5 20.6251 27.5C23.0562 27.5 25.3878 26.5343 27.1069 24.8152C28.826 23.0961 29.7918 20.7645 29.7918 18.3334C29.7918 15.9022 28.826 13.5707 27.1069 11.8516C25.3878 10.1325 23.0562 9.16672 20.6251 9.16672Z" fill="#6FFFE9"/>
<path d="M39.6228 18.3334C39.2837 18.3334 38.9537 18.3563 38.6283 18.4021C38.4011 18.4428 38.168 18.4373 37.943 18.386C37.7179 18.3346 37.5056 18.2385 37.3185 18.1033C37.1314 17.968 36.9735 17.7965 36.8542 17.599C36.7348 17.4014 36.6565 17.1818 36.6238 16.9533C36.5912 16.7249 36.6049 16.4921 36.6642 16.269C36.7234 16.046 36.827 15.8371 36.9687 15.6549C37.1104 15.4728 37.2874 15.321 37.4891 15.2087C37.6907 15.0964 37.9129 15.0258 38.1424 15.0013C40.4217 14.6718 42.7458 15.1094 44.749 16.2455C46.7522 17.3815 48.3208 19.1514 49.208 21.2766C50.0951 23.4018 50.2504 25.7617 49.6494 27.9848C49.0485 30.2079 47.7253 32.1681 45.8883 33.5569C48.5887 34.7661 50.8816 36.7309 52.4903 39.2142C54.0989 41.6975 54.9546 44.5933 54.9541 47.5521C54.9541 48.008 54.773 48.4451 54.4507 48.7675C54.1284 49.0898 53.6912 49.2709 53.2353 49.2709C52.7795 49.2709 52.3423 49.0898 52.02 48.7675C51.6977 48.4451 51.5166 48.008 51.5166 47.5521C51.5163 44.995 50.6924 42.5059 49.1668 40.4536C47.6412 38.4014 45.4952 36.8951 43.0466 36.158L41.8228 35.7913V31.9505L42.7624 31.4715C44.1552 30.766 45.2696 29.6117 45.9256 28.195C46.5817 26.7782 46.7412 25.1817 46.3783 23.6632C46.0154 22.1447 45.1514 20.7928 43.9257 19.8258C42.7 18.8587 41.1841 18.333 39.6228 18.3334Z" fill="#6FFFE9"/>
</svg>
