<svg width="46" height="35" viewBox="0 0 46 35" fill="none" xmlns="http://www.w3.org/2000/svg">
<path d="M0.875 0.3125V3.75H38.6875V31.25H14.625V34.6875H45.5625V31.25H42.125V0.3125H0.875ZM7.75344 5.46875C5.93171 5.47509 4.18635 6.20134 2.89786 7.48918C1.60937 8.77703 0.882247 10.522 0.875 12.3438C0.875 16.1233 3.97562 19.2188 7.75344 19.2188C9.57425 19.2115 11.3184 18.4847 12.6056 17.1969C13.8928 15.9091 14.6187 14.1646 14.625 12.3438C14.625 8.56766 11.5278 5.46875 7.75344 5.46875ZM18.0625 7.1875V10.625H26.6562V7.1875H18.0625ZM30.0938 7.1875V10.625H35.25V7.1875H30.0938ZM7.75344 8.90625C9.66813 8.90625 11.1875 10.4239 11.1875 12.3438C11.1875 14.2688 9.66984 15.7812 7.75344 15.7812C5.82844 15.7812 4.3125 14.2688 4.3125 12.3438C4.3125 10.4239 5.83016 8.90625 7.75344 8.90625ZM18.0625 14.0625V17.5H35.25V14.0625H18.0625ZM0.875 20.9375V34.6875H4.3125V24.375H9.46875V34.6875H12.9062V25.5059L16.4538 27.3828C17.4592 27.9156 18.6675 27.9139 19.6712 27.3828V27.3863L25.7384 24.1773L24.1348 21.1352L18.0659 24.3441L12.7447 21.5356C12.002 21.1433 11.1749 20.938 10.335 20.9375H0.875Z" fill="#6FFFE9"/>
</svg>
